:version 1.10
:name ASF
:units
  mass 1
  length 1
  angle deg
:documentation
  ASF file generated by Kaydara
:root
  axis xyz
  order  tx ty tz rx ry rz
  position 0 0 0
  orientation 0 0 0
:bonedata
  begin
    id 1
    name RightUpLegDummy
    direction -1 2.30186e-007 8.31532e-007
    length 4.46685
    axis 0 0 0 xyz
  end
  begin
    id 2
    name RightUpLeg
    direction -2.30187e-007 -1 1.24343e-010
    length 16.4045
    axis -3.49089 -0.000906625 0.000286804 xyz
    dof rx ry rz
  end
  begin
    id 3
    name RightLeg
    direction -2.30181e-007 -1 -4.17157e-009
    length 17.5097
    axis 3.68512 0.0193738 -0.131023 xyz
    dof rx ry rz
  end
  begin
    id 4
    name RightFoot
    direction 8.31421e-007 -4.51202e-011 1
    length 6.49508
    axis 4.81691e-005 -0.120479 -0.188788 xyz
    dof rx ry rz
  end
  begin
    id 5
    name RightToes
    direction 0.00124746 -0.014064 0.9999
    length 3.85082
    axis 0.000481921 0.542163 -0.142578 xyz
    dof rx ry rz
  end
  begin
    id 6
    name SpineDummy
    direction 0.0717043 0.9409 -0.331007
    length 10.0032
    axis 0 0 0 xyz
  end
  begin
    id 7
    name Spine
    direction 2.30186e-007 1 4.58806e-011
    length 9.84055
    axis -0.001389 0.000121418 2.40972e-006 xyz
    dof rx ry rz
  end
  begin
    id 8
    name Spine1
    direction 0 0 0
    length 0
    axis -0.001389 0.000121451 1.30017e-006 xyz
    dof rx ry rz
  end
  begin
    id 9
    name HEadDummy
    direction -0.00347485 0.950688 -0.310128
    length 8.00997
    axis -0.001389 0.000121451 1.30017e-006 xyz
  end
  begin
    id 10
    name HEad
    direction -0.0222688 0.980941 0.193023
    length 5.12695
    axis -0.001389 0.000121451 1.30017e-006 xyz
    dof rx ry rz
  end
  begin
    id 11
    name LeftShoulder1Dummy
    direction 0.988871 0.146793 -0.0242004
    length 3.5792
    axis -0.001389 0.000121451 1.30017e-006 xyz
  end
  begin
    id 12
    name LeftShoulder1
    direction 0.993832 0.108932 0.020779
    length 4.16823
    axis -0.001389 0.000121451 1.30017e-006 xyz
    dof rx ry rz
  end
  begin
    id 13
    name LeftArm
    direction 1 3.44807e-006 -8.31404e-007
    length 9.91437
    axis -23.1894 0.134784 0.967509 xyz
    dof rx ry rz
  end
  begin
    id 14
    name LeftForeArm
    direction 1 3.44842e-006 -8.31581e-007
    length 9.08575
    axis -9.91835 -0.06569 -0.177793 xyz
    dof rx ry rz
  end
  begin
    id 15
    name LeftHand
    direction 0.992938 -0.0411636 0.11126
    length 5.32135
    axis -0.00960232 -0.00340091 0.185173 xyz
    dof rx ry rz
  end
  begin
    id 16
    name RightShoulderDummy
    direction -0.988871 0.146793 -0.0241962
    length 3.5792
    axis -0.001389 0.000121451 1.30017e-006 xyz
  end
  begin
    id 17
    name RightShoulder
    direction -0.993832 0.108933 0.0207785
    length 4.16823
    axis 0.215806 0.000203643 -0.0068026 xyz
    dof rx ry rz
  end
  begin
    id 18
    name RightArm
    direction -1 3.90912e-006 8.31284e-007
    length 9.91437
    axis -23.2009 -0.134239 -0.964101 xyz
    dof rx ry rz
  end
  begin
    id 19
    name RightForeArm
    direction -1 3.90882e-006 8.31502e-007
    length 9.08575
    axis -9.92322 0.0658061 0.178867 xyz
    dof rx ry rz
  end
  begin
    id 20
    name RightHand
    direction -0.992843 -0.0414603 0.112003
    length 5.28593
    axis -0.00960638 0.00330671 -0.185228 xyz
    dof rx ry rz
  end
  begin
    id 21
    name LeftUpLegDummy
    direction 1 -2.30186e-007 -8.31532e-007
    length 4.46685
    axis 0 0 0 xyz
  end
  begin
    id 22
    name LeftUpLeg
    direction -2.30187e-007 -1 6.00931e-010
    length 16.4045
    axis -3.48766 0.00143442 -0.000524262 xyz
    dof rx ry rz
  end
  begin
    id 23
    name LeftLeg
    direction -2.30187e-007 -1 1.6669e-009
    length 17.5097
    axis 3.68178 -0.00654042 -0.000285133 xyz
    dof rx ry rz
  end
  begin
    id 24
    name LeftFoot
    direction 8.31532e-007 -4.54478e-011 1
    length 6.49508
    axis 1.87233e-006 4.66016e-005 -8.6538e-006 xyz
    dof rx ry rz
  end
  begin
    id 25
    name LeftToes
    direction 0.00818058 -0.00485161 0.999955
    length 3.85048
    axis 1.06247e-005 4.65869e-005 -8.65513e-006 xyz
    dof rx ry rz
  end
:hierarchy
  begin
    root RightUpLegDummy SpineDummy LeftUpLegDummy
    RightUpLegDummy RightUpLeg
    RightUpLeg RightLeg
    RightLeg RightFoot
    RightFoot RightToes
    SpineDummy Spine
    Spine Spine1
    Spine1 HEadDummy LeftShoulder1Dummy RightShoulderDummy
    HEadDummy HEad
    LeftShoulder1Dummy LeftShoulder1
    LeftShoulder1 LeftArm
    LeftArm LeftForeArm
    LeftForeArm LeftHand
    RightShoulderDummy RightShoulder
    RightShoulder RightArm
    RightArm RightForeArm
    RightForeArm RightHand
    LeftUpLegDummy LeftUpLeg
    LeftUpLeg LeftLeg
    LeftLeg LeftFoot
    LeftFoot LeftToes
  end

:SAMPLES-PER-SECOND 30
:FULLY-SPECIFIED
:DEGREES
36
root  40.0802 33.3147 -65.1753 5.89504 -78.4587 -6.62929
RightUpLeg  -11.2176 23.4344 2.17434
RightLeg  20.2656 0.324439 0.0951233
RightFoot  2.10437 0.00652768 -0.157699
RightToes  -29.7155 -0.141054 -0.249842
Spine  5.57577 -4.25963 2.07277
Spine1  9.73702 -8.67045 3.13968
HEad  15.8517 7.04929 5.02884
LeftShoulder1  0 -2.42657e-020 -4.95415e-022
LeftArm  3.48702 -9.73128 -85.342
LeftForeArm  52.8295 -76.4691 -47.628
LeftHand  -0.101277 -2.32292 4.63613
RightShoulder  0 2.42657e-020 1.07489e-018
RightArm  -9.7495 -5.90745 81.6197
RightForeArm  147.415 76.1543 133.441
RightHand  -3.33656 15.9148 -23.1786
LeftUpLeg  0.55028 20.3662 4.2986
LeftLeg  20.0245 11.6683 3.39158
LeftFoot  -7.19702 -0.107937 -1.71621
LeftToes  -11.8926 8.72033e-007 1.17809e-007
37
root  40.1811 33.3096 -65.2286 5.8248 -78.1426 -6.6141
RightUpLeg  -11.2561 23.2214 2.18901
RightLeg  20.1148 0.276629 0.0801712
RightFoot  2.33006 0.00644273 -0.142429
RightToes  -29.8318 -0.140714 -0.249432
Spine  5.61555 -3.85199 1.90648
Spine1  9.8741 -7.83631 2.88093
HEad  14.2727 6.8052 5.26437
LeftShoulder1  0 -2.42657e-020 -4.95415e-022
LeftArm  5.80028 -9.43218 -83.0156
LeftForeArm  47.9383 -75.4919 -43.3755
LeftHand  -0.0369322 -0.692726 5.79172
RightShoulder  0 2.42657e-020 1.07489e-018
RightArm  -8.30382 -7.2371 81.9232
RightForeArm  145.628 76.5737 131.454
RightHand  -3.35705 15.2866 -24.276
LeftUpLeg  0.23012 20.2853 4.34155
LeftLeg  20.2752 11.4723 3.38949
LeftFoot  -7.22129 -0.106078 -1.68097
LeftToes  -12.0415 8.72033e-007 1.17809e-007
38
root  40.2722 33.3311 -65.2595 5.50482 -76.8243 -6.2332
RightUpLeg  -11.1412 22.181 2.14755
RightLeg  19.7182 0.033864 0.00852307
RightFoot  2.56037 0.00708905 -0.13909
RightToes  -29.6983 -0.140027 -0.248575
Spine  5.57513 -3.81367 1.81285
Spine1  9.85551 -7.73651 2.70006
HEad  13.2763 7.40885 5.29524
LeftShoulder1  0 -2.42657e-020 -4.95415e-022
LeftArm  6.56822 -7.77385 -81.7065
LeftForeArm  47.9072 -75.5513 -43.6089
LeftHand  -0.0407191 -0.837883 5.23791
RightShoulder  0 2.42657e-020 1.07489e-018
RightArm  -7.20669 -8.56164 81.5524
RightForeArm  143.404 77.1084 128.606
RightHand  -3.33603 14.7707 -24.9648
LeftUpLeg  -0.372347 19.7279 4.33109
LeftLeg  20.4864 10.7766 3.22962
LeftFoot  -7.10487 -0.096392 -1.55259
LeftToes  -11.8674 8.72033e-007 1.17809e-007
39
root  40.3554 33.3656 -65.2666 5.25736 -75.042 -5.78904
RightUpLeg  -10.907 20.9474 2.03883
RightLeg  18.987 -0.435084 -0.119905
RightFoot  2.82513 0.00868999 -0.151145
RightToes  -29.4203 -0.139166 -0.247494
Spine  5.45526 -3.86288 1.75525
Spine1  9.68419 -7.81329 2.58189
HEad  12.5978 8.24656 5.28571
LeftShoulder1  0 -2.42657e-020 -4.95415e-022
LeftArm  7.64432 -6.35634 -80.9442
LeftForeArm  47.7874 -75.6313 -43.9276
LeftHand  -0.0285976 -0.5734 5.40594
RightShoulder  0 2.42657e-020 1.07489e-018
RightArm  -5.47135 -10.1083 80.2529
RightForeArm  143.158 77.0576 128.893
RightHand  -3.29206 14.0599 -25.877
LeftUpLeg  -0.976305 19.2539 4.33271
LeftLeg  20.3278 9.58754 2.84848
LeftFoot  -6.8188 -0.0794309 -1.33323
LeftToes  -11.9702 8.72033e-007 1.17809e-007
40
root  40.4331 33.3983 -65.2674 4.86152 -73.3246 -5.19998
RightUpLeg  -10.6076 19.9204 1.87817
RightLeg  18.2001 -1.07456 -0.278689
RightFoot  3.06525 0.0113063 -0.17953
RightToes  -29.3157 -0.138304 -0.246413
Spine  5.30031 -3.80894 1.65043
Spine1  9.43733 -7.70175 2.43186
HEad  12.3223 8.67985 5.4461
LeftShoulder1  0 -2.42657e-020 -4.95415e-022
LeftArm  8.51188 -5.26007 -80.6874
LeftForeArm  45.4802 -75.1947 -42.2421
LeftHand  -0.0213196 -0.47279 4.86534
RightShoulder  0 2.42657e-020 1.07489e-018
RightArm  -3.81065 -11.8759 78.7239
RightForeArm  144.54 76.7397 130.611
RightHand  -3.2907 13.6362 -26.6603
LeftUpLeg  -1.45051 19.0042 4.29841
LeftLeg  19.9999 8.2118 2.39215
LeftFoot  -6.48297 -0.0622636 -1.09936
LeftToes  -12.0552 8.72033e-007 1.17809e-007
41
root  40.5109 33.4287 -65.2667 4.47131 -71.5891 -4.63412
RightUpLeg  -10.2908 18.8639 1.69533
RightLeg  17.4367 -1.68604 -0.412721
RightFoot  3.27729 0.0142013 -0.212799
RightToes  -29.2428 -0.137616 -0.245555
Spine  5.17582 -3.74046 1.47347
Spine1  9.24962 -7.56376 2.15448
HEad  12.2888 8.68056 5.92879
LeftShoulder1  0 -2.42657e-020 -4.95415e-022
LeftArm  9.34728 -4.17664 -80.503
LeftForeArm  43.7717 -74.7681 -40.7268
LeftHand  -0.0154614 -0.370853 4.48885
RightShoulder  0 2.42657e-020 1.07489e-018
RightArm  -2.26072 -13.4696 77.407
RightForeArm  145.246 76.5265 131.687
RightHand  -3.32011 13.3429 -27.4749
LeftUpLeg  -1.95919 18.371 4.14511
LeftLeg  19.7507 7.23128 2.07421
LeftFoot  -6.14093 -0.0498412 -0.929149
LeftToes  -12.1017 8.72033e-007 1.17809e-007
42
root  40.5817 33.456 -65.2715 4.11773 -69.8542 -4.17463
RightUpLeg  -10.0296 17.4912 1.54959
RightLeg  16.9264 -2.01225 -0.473346
RightFoot  3.4046 0.016042 -0.230247
RightToes  -29.0264 -0.137275 -0.245143
Spine  5.09703 -3.65887 1.30659
Spine1  9.14236 -7.4001 1.88775
HEad  12.219 8.27652 6.41542
LeftShoulder1  0 -2.42657e-020 -4.95415e-022
LeftArm  10.1587 -3.13201 -80.4516
LeftForeArm  42.5923 -74.5666 -40.0498
LeftHand  -0.00598944 -0.150735 4.38287
RightShoulder  0 2.42657e-020 1.07489e-018
RightArm  -0.568787 -14.7306 76.1436
RightForeArm  144.926 76.4408 132.103
RightHand  -3.36251 12.7693 -29.0406
LeftUpLeg  -2.37552 17.5981 3.99561
LeftLeg  19.4783 6.38128 1.79869
LeftFoot  -5.83131 -0.0402711 -0.790684
LeftToes  -11.9236 8.72033e-007 1.17809e-007
43
root  40.6635 33.4757 -65.2648 3.42677 -68.2847 -3.32997
RightUpLeg  -9.99115 16.1197 1.1914
RightLeg  16.7734 -2.19119 -0.50918
RightFoot  3.35924 0.0168532 -0.232252
RightToes  -29.01 -0.137164 -0.245027
Spine  5.02018 -3.49041 1.06203
Spine1  9.03641 -7.03752 1.43301
HEad  12.256 7.56724 6.95312
LeftShoulder1  0 -2.42657e-020 -4.95415e-022
LeftArm  10.752 -2.1558 -80.4633
LeftForeArm  42.0535 -74.3693 -39.4113
LeftHand  -0.00390039 -0.105512 4.1365
RightShoulder  0 2.42657e-020 1.07489e-018
RightArm  0.677377 -16.0326 74.9283
RightForeArm  144.478 76.3574 132.501
RightHand  -3.34243 12.4817 -29.522
LeftUpLeg  -2.74763 16.5277 3.56221
LeftLeg  19.1207 5.95966 1.64026
LeftFoot  -5.47518 -0.0334547 -0.699649
LeftToes  -11.6176 8.72033e-007 1.17809e-007
44
root  40.7278 33.4882 -65.2748 3.11782 -66.6798 -3.04531
RightUpLeg  -9.74687 14.7889 1.09454
RightLeg  16.5639 -2.42548 -0.554173
RightFoot  3.33454 0.0179945 -0.239918
RightToes  -28.9752 -0.135913 -0.243774
Spine  5.01535 -3.39895 0.948062
Spine1  9.06065 -6.84542 1.23015
HEad  12.2677 6.90182 7.08877
LeftShoulder1  0 -2.42657e-020 -4.95415e-022
LeftArm  10.9916 -1.24683 -80.7284
LeftForeArm  41.7202 -74.0325 -38.3706
LeftHand  -0.00453761 -0.142808 3.94187
RightShoulder  0 2.42657e-020 1.07489e-018
RightArm  1.81893 -16.8089 73.8954
RightForeArm  143.4 76.6464 131.087
RightHand  -3.41737 12.4757 -30.1757
LeftUpLeg  -3.02449 15.7415 3.4575
LeftLeg  18.9275 5.24294 1.42446
LeftFoot  -5.24374 -0.0275436 -0.601494
LeftToes  -11.5734 8.72033e-007 1.17809e-007
